<?xml version="1.0" encoding="utf-8"?>
<svg width="1440" height="1000" viewBox="0 0 1440 1000" fill="none" xmlns="http://www.w3.org/2000/svg">
  <defs/>
  <path d="M604.572 645.375L601.408 637.219H591.107L587.961 645.375H584.938L594.992 619.57H597.682L607.666 645.375H604.572ZM600.512 634.564L597.506 626.461C597.436 626.25 597.318 625.904 597.154 625.424C597.002 624.943 596.844 624.445 596.68 623.93C596.516 623.414 596.381 622.998 596.275 622.682C596.158 623.162 596.029 623.643 595.889 624.123C595.76 624.592 595.631 625.031 595.502 625.441C595.373 625.84 595.262 626.18 595.168 626.461L592.109 634.564H600.512ZM617.65 645.727C615.213 645.727 613.279 644.895 611.85 643.23C610.432 641.566 609.723 639.094 609.723 635.812C609.723 632.496 610.449 629.994 611.902 628.307C613.355 626.607 615.289 625.758 617.703 625.758C618.723 625.758 619.613 625.893 620.375 626.162C621.137 626.432 621.793 626.795 622.344 627.252C622.895 627.697 623.357 628.207 623.732 628.781H623.943C623.896 628.418 623.85 627.92 623.803 627.287C623.756 626.654 623.732 626.139 623.732 625.74V618.023H626.65V645.375H624.295L623.855 642.633H623.732C623.369 643.207 622.906 643.729 622.344 644.197C621.793 644.666 621.131 645.041 620.357 645.322C619.596 645.592 618.693 645.727 617.65 645.727ZM618.107 643.301C620.17 643.301 621.629 642.715 622.484 641.543C623.34 640.371 623.768 638.631 623.768 636.322V635.795C623.768 633.346 623.357 631.465 622.537 630.152C621.729 628.84 620.252 628.184 618.107 628.184C616.314 628.184 614.973 628.875 614.082 630.258C613.191 631.629 612.746 633.504 612.746 635.883C612.746 638.25 613.186 640.078 614.064 641.367C614.955 642.656 616.303 643.301 618.107 643.301ZM639.693 645.727C637.256 645.727 635.322 644.895 633.893 643.23C632.475 641.566 631.766 639.094 631.766 635.812C631.766 632.496 632.492 629.994 633.945 628.307C635.398 626.607 637.332 625.758 639.746 625.758C640.766 625.758 641.656 625.893 642.418 626.162C643.18 626.432 643.836 626.795 644.387 627.252C644.938 627.697 645.4 628.207 645.775 628.781H645.986C645.939 628.418 645.893 627.92 645.846 627.287C645.799 626.654 645.775 626.139 645.775 625.74V618.023H648.693V645.375H646.338L645.898 642.633H645.775C645.412 643.207 644.949 643.729 644.387 644.197C643.836 644.666 643.174 645.041 642.4 645.322C641.639 645.592 640.736 645.727 639.693 645.727ZM640.15 643.301C642.213 643.301 643.672 642.715 644.527 641.543C645.383 640.371 645.811 638.631 645.811 636.322V635.795C645.811 633.346 645.4 631.465 644.58 630.152C643.771 628.84 642.295 628.184 640.15 628.184C638.357 628.184 637.016 628.875 636.125 630.258C635.234 631.629 634.789 633.504 634.789 635.883C634.789 638.25 635.229 640.078 636.107 641.367C636.998 642.656 638.346 643.301 640.15 643.301ZM676.695 640.102C676.695 641.332 676.385 642.369 675.764 643.213C675.154 644.045 674.275 644.672 673.127 645.094C671.99 645.516 670.631 645.727 669.049 645.727C667.701 645.727 666.535 645.621 665.551 645.41C664.566 645.199 663.705 644.9 662.967 644.514V641.824C663.752 642.211 664.689 642.562 665.779 642.879C666.869 643.195 667.982 643.354 669.119 643.354C670.783 643.354 671.99 643.084 672.74 642.545C673.49 642.006 673.865 641.273 673.865 640.348C673.865 639.82 673.713 639.357 673.408 638.959C673.115 638.549 672.617 638.156 671.914 637.781C671.211 637.395 670.238 636.973 668.996 636.516C667.766 636.047 666.699 635.584 665.797 635.127C664.906 634.658 664.215 634.09 663.723 633.422C663.242 632.754 663.002 631.887 663.002 630.82C663.002 629.191 663.658 627.943 664.971 627.076C666.295 626.197 668.029 625.758 670.174 625.758C671.334 625.758 672.418 625.875 673.426 626.109C674.445 626.332 675.395 626.637 676.273 627.023L675.289 629.361C674.492 629.021 673.643 628.734 672.74 628.5C671.838 628.266 670.918 628.148 669.98 628.148C668.633 628.148 667.596 628.371 666.869 628.816C666.154 629.262 665.797 629.871 665.797 630.645C665.797 631.242 665.961 631.734 666.289 632.121C666.629 632.508 667.168 632.871 667.906 633.211C668.645 633.551 669.617 633.949 670.824 634.406C672.031 634.852 673.074 635.314 673.953 635.795C674.832 636.264 675.506 636.838 675.975 637.518C676.455 638.186 676.695 639.047 676.695 640.102ZM698 635.707C698 637.289 697.795 638.701 697.385 639.943C696.975 641.186 696.383 642.234 695.609 643.09C694.836 643.945 693.898 644.602 692.797 645.059C691.707 645.504 690.471 645.727 689.088 645.727C687.799 645.727 686.615 645.504 685.537 645.059C684.471 644.602 683.545 643.945 682.76 643.09C681.986 642.234 681.383 641.186 680.949 639.943C680.527 638.701 680.316 637.289 680.316 635.707C680.316 633.598 680.674 631.805 681.389 630.328C682.104 628.84 683.123 627.709 684.447 626.936C685.783 626.15 687.371 625.758 689.211 625.758C690.969 625.758 692.504 626.15 693.816 626.936C695.141 627.721 696.166 628.857 696.893 630.346C697.631 631.822 698 633.609 698 635.707ZM683.34 635.707C683.34 637.254 683.545 638.596 683.955 639.732C684.365 640.869 684.998 641.748 685.854 642.369C686.709 642.99 687.811 643.301 689.158 643.301C690.494 643.301 691.59 642.99 692.445 642.369C693.312 641.748 693.951 640.869 694.361 639.732C694.771 638.596 694.977 637.254 694.977 635.707C694.977 634.172 694.771 632.848 694.361 631.734C693.951 630.609 693.318 629.742 692.463 629.133C691.607 628.523 690.5 628.219 689.141 628.219C687.137 628.219 685.666 628.881 684.729 630.205C683.803 631.529 683.34 633.363 683.34 635.707ZM723.963 625.758C726.084 625.758 727.684 626.314 728.762 627.428C729.84 628.529 730.379 630.305 730.379 632.754V645.375H727.496V632.895C727.496 631.336 727.156 630.17 726.477 629.396C725.809 628.611 724.812 628.219 723.488 628.219C721.625 628.219 720.271 628.758 719.428 629.836C718.584 630.914 718.162 632.502 718.162 634.6V645.375H715.262V632.895C715.262 631.852 715.109 630.984 714.805 630.293C714.512 629.602 714.066 629.086 713.469 628.746C712.883 628.395 712.139 628.219 711.236 628.219C709.959 628.219 708.934 628.482 708.16 629.01C707.387 629.537 706.824 630.322 706.473 631.365C706.133 632.396 705.963 633.668 705.963 635.18V645.375H703.045V626.109H705.4L705.84 628.834H705.998C706.385 628.166 706.871 627.604 707.457 627.146C708.043 626.689 708.699 626.344 709.426 626.109C710.152 625.875 710.926 625.758 711.746 625.758C713.211 625.758 714.436 626.033 715.42 626.584C716.416 627.123 717.137 627.949 717.582 629.062H717.74C718.373 627.949 719.24 627.123 720.342 626.584C721.443 626.033 722.65 625.758 723.963 625.758ZM743.791 625.758C745.432 625.758 746.838 626.121 748.01 626.848C749.182 627.574 750.078 628.594 750.699 629.906C751.32 631.207 751.631 632.73 751.631 634.477V636.287H738.324C738.359 638.549 738.922 640.271 740.012 641.455C741.102 642.639 742.637 643.23 744.617 643.23C745.836 643.23 746.914 643.119 747.852 642.896C748.789 642.674 749.762 642.346 750.77 641.912V644.479C749.797 644.912 748.83 645.229 747.869 645.428C746.92 645.627 745.795 645.727 744.494 645.727C742.643 645.727 741.025 645.352 739.643 644.602C738.271 643.84 737.205 642.727 736.443 641.262C735.682 639.797 735.301 638.004 735.301 635.883C735.301 633.809 735.646 632.016 736.338 630.504C737.041 628.98 738.025 627.809 739.291 626.988C740.568 626.168 742.068 625.758 743.791 625.758ZM743.756 628.148C742.197 628.148 740.955 628.658 740.029 629.678C739.104 630.697 738.553 632.121 738.377 633.949H748.572C748.561 632.801 748.379 631.793 748.027 630.926C747.688 630.047 747.166 629.367 746.463 628.887C745.76 628.395 744.857 628.148 743.756 628.148ZM768.857 626.109V645.375H765.939V626.109H768.857ZM767.434 618.902C767.914 618.902 768.324 619.061 768.664 619.377C769.016 619.682 769.191 620.162 769.191 620.818C769.191 621.463 769.016 621.943 768.664 622.26C768.324 622.576 767.914 622.734 767.434 622.734C766.93 622.734 766.508 622.576 766.168 622.26C765.84 621.943 765.676 621.463 765.676 620.818C765.676 620.162 765.84 619.682 766.168 619.377C766.508 619.061 766.93 618.902 767.434 618.902ZM781.268 643.336C781.748 643.336 782.24 643.295 782.744 643.213C783.248 643.131 783.658 643.031 783.975 642.914V645.182C783.635 645.334 783.16 645.463 782.551 645.568C781.953 645.674 781.367 645.727 780.793 645.727C779.773 645.727 778.848 645.551 778.016 645.199C777.184 644.836 776.516 644.227 776.012 643.371C775.52 642.516 775.273 641.332 775.273 639.82V628.395H772.531V626.971L775.291 625.828L776.451 621.645H778.209V626.109H783.852V628.395H778.209V639.732C778.209 640.939 778.484 641.842 779.035 642.439C779.598 643.037 780.342 643.336 781.268 643.336ZM795.295 625.758C796.936 625.758 798.342 626.121 799.514 626.848C800.686 627.574 801.582 628.594 802.203 629.906C802.824 631.207 803.135 632.73 803.135 634.477V636.287H789.828C789.863 638.549 790.426 640.271 791.516 641.455C792.605 642.639 794.141 643.23 796.121 643.23C797.34 643.23 798.418 643.119 799.355 642.896C800.293 642.674 801.266 642.346 802.273 641.912V644.479C801.301 644.912 800.334 645.229 799.373 645.428C798.424 645.627 797.299 645.727 795.998 645.727C794.146 645.727 792.529 645.352 791.146 644.602C789.775 643.84 788.709 642.727 787.947 641.262C787.186 639.797 786.805 638.004 786.805 635.883C786.805 633.809 787.15 632.016 787.842 630.504C788.545 628.98 789.529 627.809 790.795 626.988C792.072 626.168 793.572 625.758 795.295 625.758ZM795.26 628.148C793.701 628.148 792.459 628.658 791.533 629.678C790.607 630.697 790.057 632.121 789.881 633.949H800.076C800.064 632.801 799.883 631.793 799.531 630.926C799.191 630.047 798.67 629.367 797.967 628.887C797.264 628.395 796.361 628.148 795.26 628.148ZM829.01 625.758C831.131 625.758 832.73 626.314 833.809 627.428C834.887 628.529 835.426 630.305 835.426 632.754V645.375H832.543V632.895C832.543 631.336 832.203 630.17 831.523 629.396C830.855 628.611 829.859 628.219 828.535 628.219C826.672 628.219 825.318 628.758 824.475 629.836C823.631 630.914 823.209 632.502 823.209 634.6V645.375H820.309V632.895C820.309 631.852 820.156 630.984 819.852 630.293C819.559 629.602 819.113 629.086 818.516 628.746C817.93 628.395 817.186 628.219 816.283 628.219C815.006 628.219 813.98 628.482 813.207 629.01C812.434 629.537 811.871 630.322 811.52 631.365C811.18 632.396 811.01 633.668 811.01 635.18V645.375H808.092V626.109H810.447L810.887 628.834H811.045C811.432 628.166 811.918 627.604 812.504 627.146C813.09 626.689 813.746 626.344 814.473 626.109C815.199 625.875 815.973 625.758 816.793 625.758C818.258 625.758 819.482 626.033 820.467 626.584C821.463 627.123 822.184 627.949 822.629 629.062H822.787C823.42 627.949 824.287 627.123 825.389 626.584C826.49 626.033 827.697 625.758 829.01 625.758ZM853.883 640.102C853.883 641.332 853.572 642.369 852.951 643.213C852.342 644.045 851.463 644.672 850.314 645.094C849.178 645.516 847.818 645.727 846.236 645.727C844.889 645.727 843.723 645.621 842.738 645.41C841.754 645.199 840.893 644.9 840.154 644.514V641.824C840.939 642.211 841.877 642.562 842.967 642.879C844.057 643.195 845.17 643.354 846.307 643.354C847.971 643.354 849.178 643.084 849.928 642.545C850.678 642.006 851.053 641.273 851.053 640.348C851.053 639.82 850.9 639.357 850.596 638.959C850.303 638.549 849.805 638.156 849.102 637.781C848.398 637.395 847.426 636.973 846.184 636.516C844.953 636.047 843.887 635.584 842.984 635.127C842.094 634.658 841.402 634.09 840.91 633.422C840.43 632.754 840.189 631.887 840.189 630.82C840.189 629.191 840.846 627.943 842.158 627.076C843.482 626.197 845.217 625.758 847.361 625.758C848.521 625.758 849.605 625.875 850.613 626.109C851.633 626.332 852.582 626.637 853.461 627.023L852.477 629.361C851.68 629.021 850.83 628.734 849.928 628.5C849.025 628.266 848.105 628.148 847.168 628.148C845.82 628.148 844.783 628.371 844.057 628.816C843.342 629.262 842.984 629.871 842.984 630.645C842.984 631.242 843.148 631.734 843.477 632.121C843.816 632.508 844.355 632.871 845.094 633.211C845.832 633.551 846.805 633.949 848.012 634.406C849.219 634.852 850.262 635.314 851.141 635.795C852.02 636.264 852.693 636.838 853.162 637.518C853.643 638.186 853.883 639.047 853.883 640.102ZM682.83 667.023V675.197C682.83 675.666 682.818 676.141 682.795 676.621C682.771 677.09 682.73 677.523 682.672 677.922H682.865C683.264 677.242 683.768 676.674 684.377 676.217C684.998 675.748 685.701 675.396 686.486 675.162C687.271 674.916 688.104 674.793 688.982 674.793C690.529 674.793 691.818 675.039 692.85 675.531C693.893 676.023 694.672 676.785 695.188 677.816C695.715 678.848 695.979 680.184 695.979 681.824V694.375H693.096V682.018C693.096 680.412 692.727 679.211 691.988 678.414C691.262 677.617 690.143 677.219 688.631 677.219C687.201 677.219 686.059 677.494 685.203 678.045C684.359 678.584 683.75 679.381 683.375 680.436C683.012 681.49 682.83 682.779 682.83 684.303V694.375H679.912V667.023H682.83ZM709.408 674.758C711.049 674.758 712.455 675.121 713.627 675.848C714.799 676.574 715.695 677.594 716.316 678.906C716.938 680.207 717.248 681.73 717.248 683.477V685.287H703.941C703.977 687.549 704.539 689.271 705.629 690.455C706.719 691.639 708.254 692.23 710.234 692.23C711.453 692.23 712.531 692.119 713.469 691.896C714.406 691.674 715.379 691.346 716.387 690.912V693.479C715.414 693.912 714.447 694.229 713.486 694.428C712.537 694.627 711.412 694.727 710.111 694.727C708.26 694.727 706.643 694.352 705.26 693.602C703.889 692.84 702.822 691.727 702.061 690.262C701.299 688.797 700.918 687.004 700.918 684.883C700.918 682.809 701.264 681.016 701.955 679.504C702.658 677.98 703.643 676.809 704.908 675.988C706.186 675.168 707.686 674.758 709.408 674.758ZM709.373 677.148C707.814 677.148 706.572 677.658 705.646 678.678C704.721 679.697 704.17 681.121 703.994 682.949H714.189C714.178 681.801 713.996 680.793 713.645 679.926C713.305 679.047 712.783 678.367 712.08 677.887C711.377 677.395 710.475 677.148 709.373 677.148ZM730.959 674.758C731.346 674.758 731.75 674.781 732.172 674.828C732.594 674.863 732.969 674.916 733.297 674.986L732.928 677.693C732.611 677.611 732.26 677.547 731.873 677.5C731.486 677.453 731.123 677.43 730.783 677.43C730.01 677.43 729.277 677.588 728.586 677.904C727.906 678.209 727.309 678.654 726.793 679.24C726.277 679.814 725.873 680.512 725.58 681.332C725.287 682.141 725.141 683.043 725.141 684.039V694.375H722.205V675.109H724.631L724.947 678.66H725.07C725.469 677.945 725.949 677.295 726.512 676.709C727.074 676.111 727.725 675.637 728.463 675.285C729.213 674.934 730.045 674.758 730.959 674.758ZM744.354 674.758C745.994 674.758 747.4 675.121 748.572 675.848C749.744 676.574 750.641 677.594 751.262 678.906C751.883 680.207 752.193 681.73 752.193 683.477V685.287H738.887C738.922 687.549 739.484 689.271 740.574 690.455C741.664 691.639 743.199 692.23 745.18 692.23C746.398 692.23 747.477 692.119 748.414 691.896C749.352 691.674 750.324 691.346 751.332 690.912V693.479C750.359 693.912 749.393 694.229 748.432 694.428C747.482 694.627 746.357 694.727 745.057 694.727C743.205 694.727 741.588 694.352 740.205 693.602C738.834 692.84 737.768 691.727 737.006 690.262C736.244 688.797 735.863 687.004 735.863 684.883C735.863 682.809 736.209 681.016 736.9 679.504C737.604 677.98 738.588 676.809 739.854 675.988C741.131 675.168 742.631 674.758 744.354 674.758ZM744.318 677.148C742.76 677.148 741.518 677.658 740.592 678.678C739.666 679.697 739.115 681.121 738.939 682.949H749.135C749.123 681.801 748.941 680.793 748.59 679.926C748.25 679.047 747.729 678.367 747.025 677.887C746.322 677.395 745.42 677.148 744.318 677.148ZM759.787 687.238H757.871L757.062 668.676H760.596L759.787 687.238ZM756.711 692.547C756.711 691.727 756.91 691.146 757.309 690.807C757.707 690.455 758.205 690.279 758.803 690.279C759.389 690.279 759.881 690.455 760.279 690.807C760.689 691.146 760.895 691.727 760.895 692.547C760.895 693.355 760.689 693.947 760.279 694.322C759.881 694.686 759.389 694.867 758.803 694.867C758.205 694.867 757.707 694.686 757.309 694.322C756.91 693.947 756.711 693.355 756.711 692.547Z" fill="#000000"/>
  <path d="M620 386.259C620 383.986 620.903 381.805 622.511 380.198C624.118 378.591 626.299 377.688 628.572 377.688H634.95C645.808 377.688 652.322 384.99 656.037 391.779C658.517 396.305 660.311 401.55 661.717 406.305C662.097 406.275 662.479 406.259 662.86 406.259H805.704C815.191 406.259 822.048 415.333 819.443 424.465L798.55 497.71C796.676 504.28 792.713 510.061 787.261 514.177C781.808 518.293 775.162 520.52 768.33 520.522H700.348C693.462 520.522 686.766 518.261 681.29 514.086C675.814 509.911 671.861 504.053 670.038 497.413L661.351 465.733L646.95 417.185L646.939 417.093C645.156 410.613 643.487 404.545 640.996 400.019C638.607 395.619 636.687 394.83 634.961 394.83H628.572C626.299 394.83 624.118 393.927 622.511 392.32C620.903 390.712 620 388.532 620 386.259ZM677.981 461.573L686.565 492.876C688.279 499.07 693.914 503.379 700.348 503.379H768.33C771.436 503.379 774.457 502.367 776.936 500.497C779.414 498.626 781.216 495.999 782.068 493.013L801.921 423.402H666.689L677.821 460.967L677.981 461.573ZM717.15 554.83C717.15 560.892 714.741 566.706 710.454 570.993C706.168 575.279 700.353 577.688 694.291 577.688C688.228 577.688 682.414 575.279 678.127 570.993C673.84 566.706 671.432 560.892 671.432 554.83C671.432 548.768 673.84 542.954 678.127 538.668C682.414 534.381 688.228 531.973 694.291 531.973C700.353 531.973 706.168 534.381 710.454 538.668C714.741 542.954 717.15 548.768 717.15 554.83V554.83ZM700.006 554.83C700.006 553.315 699.404 551.861 698.332 550.79C697.26 549.718 695.807 549.116 694.291 549.116C692.775 549.116 691.322 549.718 690.25 550.79C689.178 551.861 688.576 553.315 688.576 554.83C688.576 556.346 689.178 557.799 690.25 558.871C691.322 559.943 692.775 560.545 694.291 560.545C695.807 560.545 697.26 559.943 698.332 558.871C699.404 557.799 700.006 556.346 700.006 554.83ZM797.155 554.83C797.155 560.892 794.747 566.706 790.46 570.993C786.173 575.279 780.359 577.688 774.296 577.688C768.234 577.688 762.42 575.279 758.133 570.993C753.846 566.706 751.438 560.892 751.438 554.83C751.438 548.768 753.846 542.954 758.133 538.668C762.42 534.381 768.234 531.973 774.296 531.973C780.359 531.973 786.173 534.381 790.46 538.668C794.747 542.954 797.155 548.768 797.155 554.83V554.83ZM780.011 554.83C780.011 553.315 779.409 551.861 778.337 550.79C777.266 549.718 775.812 549.116 774.296 549.116C772.781 549.116 771.327 549.718 770.256 550.79C769.184 551.861 768.582 553.315 768.582 554.83C768.582 556.346 769.184 557.799 770.256 558.871C771.327 559.943 772.781 560.545 774.296 560.545C775.812 560.545 777.266 559.943 778.337 558.871C779.409 557.799 780.011 556.346 780.011 554.83Z" fill="#000000"/>
  <path d="M591.562 292.758C589.672 292.758 587.969 293.086 586.453 293.742C584.953 294.383 583.672 295.32 582.609 296.555C581.562 297.773 580.758 299.25 580.195 300.984C579.633 302.719 579.352 304.672 579.352 306.844C579.352 309.719 579.797 312.219 580.688 314.344C581.594 316.453 582.938 318.086 584.719 319.242C586.516 320.398 588.758 320.977 591.445 320.977C592.977 320.977 594.414 320.852 595.758 320.602C597.117 320.336 598.438 320.008 599.719 319.617V323.086C598.469 323.555 597.156 323.898 595.781 324.117C594.406 324.352 592.773 324.469 590.883 324.469C587.398 324.469 584.484 323.75 582.141 322.312C579.812 320.859 578.062 318.812 576.891 316.172C575.734 313.531 575.156 310.414 575.156 306.82C575.156 304.227 575.516 301.859 576.234 299.719C576.969 297.562 578.031 295.703 579.422 294.141C580.828 292.578 582.547 291.375 584.578 290.531C586.625 289.672 588.969 289.242 591.609 289.242C593.344 289.242 595.016 289.414 596.625 289.758C598.234 290.102 599.688 290.594 600.984 291.234L599.391 294.609C598.297 294.109 597.094 293.68 595.781 293.32C594.484 292.945 593.078 292.758 591.562 292.758ZM616.172 297.891C619.234 297.891 621.508 298.578 622.992 299.953C624.477 301.328 625.219 303.523 625.219 306.539V324H622.383L621.633 320.203H621.445C620.727 321.141 619.977 321.93 619.195 322.57C618.414 323.195 617.508 323.672 616.477 324C615.461 324.312 614.211 324.469 612.727 324.469C611.164 324.469 609.773 324.195 608.555 323.648C607.352 323.102 606.398 322.273 605.695 321.164C605.008 320.055 604.664 318.648 604.664 316.945C604.664 314.383 605.68 312.414 607.711 311.039C609.742 309.664 612.836 308.914 616.992 308.789L621.422 308.602V307.031C621.422 304.812 620.945 303.258 619.992 302.367C619.039 301.477 617.695 301.031 615.961 301.031C614.617 301.031 613.336 301.227 612.117 301.617C610.898 302.008 609.742 302.469 608.648 303L607.453 300.047C608.609 299.453 609.938 298.945 611.438 298.523C612.938 298.102 614.516 297.891 616.172 297.891ZM621.375 311.344L617.461 311.508C614.258 311.633 612 312.156 610.688 313.078C609.375 314 608.719 315.305 608.719 316.992C608.719 318.461 609.164 319.547 610.055 320.25C610.945 320.953 612.125 321.305 613.594 321.305C615.875 321.305 617.742 320.672 619.195 319.406C620.648 318.141 621.375 316.242 621.375 313.711V311.344ZM644.906 297.844C645.422 297.844 645.961 297.875 646.523 297.938C647.086 297.984 647.586 298.055 648.023 298.148L647.531 301.758C647.109 301.648 646.641 301.562 646.125 301.5C645.609 301.438 645.125 301.406 644.672 301.406C643.641 301.406 642.664 301.617 641.742 302.039C640.836 302.445 640.039 303.039 639.352 303.82C638.664 304.586 638.125 305.516 637.734 306.609C637.344 307.688 637.148 308.891 637.148 310.219V324H633.234V298.312H636.469L636.891 303.047H637.055C637.586 302.094 638.227 301.227 638.977 300.445C639.727 299.648 640.594 299.016 641.578 298.547C642.578 298.078 643.688 297.844 644.906 297.844ZM661.172 321.281C661.812 321.281 662.469 321.227 663.141 321.117C663.812 321.008 664.359 320.875 664.781 320.719V323.742C664.328 323.945 663.695 324.117 662.883 324.258C662.086 324.398 661.305 324.469 660.539 324.469C659.18 324.469 657.945 324.234 656.836 323.766C655.727 323.281 654.836 322.469 654.164 321.328C653.508 320.188 653.18 318.609 653.18 316.594V301.359H649.523V299.461L653.203 297.938L654.75 292.359H657.094V298.312H664.617V301.359H657.094V316.477C657.094 318.086 657.461 319.289 658.195 320.086C658.945 320.883 659.938 321.281 661.172 321.281ZM686.344 298.312V324H682.453V298.312H686.344ZM684.445 288.703C685.086 288.703 685.633 288.914 686.086 289.336C686.555 289.742 686.789 290.383 686.789 291.258C686.789 292.117 686.555 292.758 686.086 293.18C685.633 293.602 685.086 293.812 684.445 293.812C683.773 293.812 683.211 293.602 682.758 293.18C682.32 292.758 682.102 292.117 682.102 291.258C682.102 290.383 682.32 289.742 682.758 289.336C683.211 288.914 683.773 288.703 684.445 288.703ZM711.211 316.969C711.211 318.609 710.797 319.992 709.969 321.117C709.156 322.227 707.984 323.062 706.453 323.625C704.938 324.188 703.125 324.469 701.016 324.469C699.219 324.469 697.664 324.328 696.352 324.047C695.039 323.766 693.891 323.367 692.906 322.852V319.266C693.953 319.781 695.203 320.25 696.656 320.672C698.109 321.094 699.594 321.305 701.109 321.305C703.328 321.305 704.938 320.945 705.938 320.227C706.938 319.508 707.438 318.531 707.438 317.297C707.438 316.594 707.234 315.977 706.828 315.445C706.438 314.898 705.773 314.375 704.836 313.875C703.898 313.359 702.602 312.797 700.945 312.188C699.305 311.562 697.883 310.945 696.68 310.336C695.492 309.711 694.57 308.953 693.914 308.062C693.273 307.172 692.953 306.016 692.953 304.594C692.953 302.422 693.828 300.758 695.578 299.602C697.344 298.43 699.656 297.844 702.516 297.844C704.062 297.844 705.508 298 706.852 298.312C708.211 298.609 709.477 299.016 710.648 299.531L709.336 302.648C708.273 302.195 707.141 301.812 705.938 301.5C704.734 301.188 703.508 301.031 702.258 301.031C700.461 301.031 699.078 301.328 698.109 301.922C697.156 302.516 696.68 303.328 696.68 304.359C696.68 305.156 696.898 305.812 697.336 306.328C697.789 306.844 698.508 307.328 699.492 307.781C700.477 308.234 701.773 308.766 703.383 309.375C704.992 309.969 706.383 310.586 707.555 311.227C708.727 311.852 709.625 312.617 710.25 313.523C710.891 314.414 711.211 315.562 711.211 316.969ZM739.828 297.844C742.016 297.844 743.891 298.328 745.453 299.297C747.016 300.266 748.211 301.625 749.039 303.375C749.867 305.109 750.281 307.141 750.281 309.469V311.883H732.539C732.586 314.898 733.336 317.195 734.789 318.773C736.242 320.352 738.289 321.141 740.93 321.141C742.555 321.141 743.992 320.992 745.242 320.695C746.492 320.398 747.789 319.961 749.133 319.383V322.805C747.836 323.383 746.547 323.805 745.266 324.07C744 324.336 742.5 324.469 740.766 324.469C738.297 324.469 736.141 323.969 734.297 322.969C732.469 321.953 731.047 320.469 730.031 318.516C729.016 316.562 728.508 314.172 728.508 311.344C728.508 308.578 728.969 306.188 729.891 304.172C730.828 302.141 732.141 300.578 733.828 299.484C735.531 298.391 737.531 297.844 739.828 297.844ZM739.781 301.031C737.703 301.031 736.047 301.711 734.812 303.07C733.578 304.43 732.844 306.328 732.609 308.766H746.203C746.188 307.234 745.945 305.891 745.477 304.734C745.023 303.562 744.328 302.656 743.391 302.016C742.453 301.359 741.25 301.031 739.781 301.031ZM784.781 297.844C787.609 297.844 789.742 298.586 791.18 300.07C792.617 301.539 793.336 303.906 793.336 307.172V324H789.492V307.359C789.492 305.281 789.039 303.727 788.133 302.695C787.242 301.648 785.914 301.125 784.148 301.125C781.664 301.125 779.859 301.844 778.734 303.281C777.609 304.719 777.047 306.836 777.047 309.633V324H773.18V307.359C773.18 305.969 772.977 304.812 772.57 303.891C772.18 302.969 771.586 302.281 770.789 301.828C770.008 301.359 769.016 301.125 767.812 301.125C766.109 301.125 764.742 301.477 763.711 302.18C762.68 302.883 761.93 303.93 761.461 305.32C761.008 306.695 760.781 308.391 760.781 310.406V324H756.891V298.312H760.031L760.617 301.945H760.828C761.344 301.055 761.992 300.305 762.773 299.695C763.555 299.086 764.43 298.625 765.398 298.312C766.367 298 767.398 297.844 768.492 297.844C770.445 297.844 772.078 298.211 773.391 298.945C774.719 299.664 775.68 300.766 776.273 302.25H776.484C777.328 300.766 778.484 299.664 779.953 298.945C781.422 298.211 783.031 297.844 784.781 297.844ZM813.398 297.844C816.602 297.844 819.156 298.945 821.062 301.148C822.969 303.352 823.922 306.664 823.922 311.086C823.922 314.008 823.484 316.461 822.609 318.445C821.734 320.43 820.5 321.93 818.906 322.945C817.328 323.961 815.461 324.469 813.305 324.469C811.945 324.469 810.75 324.289 809.719 323.93C808.688 323.57 807.805 323.086 807.07 322.477C806.336 321.867 805.727 321.203 805.242 320.484H804.961C805.008 321.094 805.062 321.828 805.125 322.688C805.203 323.547 805.242 324.297 805.242 324.938V335.484H801.328V298.312H804.539L805.055 302.109H805.242C805.742 301.328 806.352 300.617 807.07 299.977C807.789 299.32 808.664 298.805 809.695 298.43C810.742 298.039 811.977 297.844 813.398 297.844ZM812.719 301.125C810.938 301.125 809.5 301.469 808.406 302.156C807.328 302.844 806.539 303.875 806.039 305.25C805.539 306.609 805.273 308.32 805.242 310.383V311.133C805.242 313.305 805.477 315.141 805.945 316.641C806.43 318.141 807.219 319.281 808.312 320.062C809.422 320.844 810.906 321.234 812.766 321.234C814.359 321.234 815.688 320.805 816.75 319.945C817.812 319.086 818.602 317.891 819.117 316.359C819.648 314.812 819.914 313.039 819.914 311.039C819.914 308.008 819.32 305.602 818.133 303.82C816.961 302.023 815.156 301.125 812.719 301.125ZM839.016 321.281C839.656 321.281 840.312 321.227 840.984 321.117C841.656 321.008 842.203 320.875 842.625 320.719V323.742C842.172 323.945 841.539 324.117 840.727 324.258C839.93 324.398 839.148 324.469 838.383 324.469C837.023 324.469 835.789 324.234 834.68 323.766C833.57 323.281 832.68 322.469 832.008 321.328C831.352 320.188 831.023 318.609 831.023 316.594V301.359H827.367V299.461L831.047 297.938L832.594 292.359H834.938V298.312H842.461V301.359H834.938V316.477C834.938 318.086 835.305 319.289 836.039 320.086C836.789 320.883 837.781 321.281 839.016 321.281ZM843.773 298.312H847.945L853.617 313.219C853.945 314.094 854.25 314.938 854.531 315.75C854.812 316.547 855.062 317.312 855.281 318.047C855.5 318.781 855.672 319.492 855.797 320.18H855.961C856.18 319.398 856.492 318.375 856.898 317.109C857.305 315.828 857.742 314.523 858.211 313.195L863.578 298.312H867.773L856.594 327.773C856 329.352 855.305 330.727 854.508 331.898C853.727 333.07 852.773 333.969 851.648 334.594C850.523 335.234 849.164 335.555 847.57 335.555C846.836 335.555 846.188 335.508 845.625 335.414C845.062 335.336 844.578 335.242 844.172 335.133V332.016C844.516 332.094 844.93 332.164 845.414 332.227C845.914 332.289 846.43 332.32 846.961 332.32C847.93 332.32 848.766 332.133 849.469 331.758C850.188 331.398 850.805 330.867 851.32 330.164C851.836 329.461 852.281 328.625 852.656 327.656L854.062 324.047L843.773 298.312Z" fill="#000000"/>
</svg>